<?xml version="1.0" encoding="utf-8"?>
<!-- Generator: Adobe Illustrator 16.0.0, SVG Export Plug-In . SVG Version: 6.00 Build 0)  -->
<!DOCTYPE svg PUBLIC "-//W3C//DTD SVG 1.1//EN" "http://www.w3.org/Graphics/SVG/1.1/DTD/svg11.dtd">
<svg version="1.1" xmlns="http://www.w3.org/2000/svg" xmlns:xlink="http://www.w3.org/1999/xlink" x="0px" y="0px"
	 width="484.003px" height="269.085px" viewBox="0 0 484.003 269.085" enable-background="new 0 0 484.003 269.085"
	 xml:space="preserve">
<g id="Layer_2">
</g>
<g id="LetsGoLogo">
	<g id="Layer_3">
	</g>
	<g id="Layer_4">
	</g>
	<g>
		<path fill="none" d="M239.987,37.271c-14.73-8.162-33.28-2.847-41.445,11.876c-1.64,2.96-3.241,8.396-4.754,15.186h61.894
			C255.815,53.481,250.142,42.903,239.987,37.271z"/>
		<path fill="#FF7C06" d="M147.899,266.319c17.938-13.723,17.693-13.475,44.909-35.319c0,0-13.299,1.069-22.842,1.069
			S151.601,231,151.601,231C149.239,252.229,147.899,266.319,147.899,266.319z"/>
		<path fill="#FF7C06" d="M198.542,49.147c8.165-14.723,26.715-20.038,41.445-11.876c10.155,5.632,15.828,16.211,15.694,27.062
			h71.515c-3.879-21.689-17.12-41.519-37.896-53.038c-36.633-20.32-82.818-7.084-103.133,29.561
			c-2.851,5.142-5.655,13.282-8.37,23.477h15.99C195.3,57.542,196.902,52.107,198.542,49.147z"/>
	</g>
	<circle fill="#FFFFFF" cx="67.571" cy="181.049" r="21.957"/>
	<circle fill="#FFFFFF" cx="411.69" cy="219.374" r="21.957"/>
	<path fill="#FFFFFF" d="M347.898,172.879c-7.481-2.299-15.161-3.943-20.956-4.88c-2.906-0.419-5.322-0.817-7.032-0.951
		c-1.704-0.175-2.678-0.274-2.678-0.274l-2.125,26.956c0,0,0.792,0.081,2.178,0.226c1.392,0.1,3.354,0.443,5.719,0.777
		c4.716,0.771,10.944,2.106,17.05,3.981c6.217,1.876,12.342,4.274,16.839,6.276c4.51,1.987,7.419,3.523,7.419,3.523l12.236-24.068
		c-0.001,0-3.418-1.803-8.719-4.141C362.538,177.949,355.334,175.123,347.898,172.879z"/>
	<path fill="#FFFFFF" d="M241.696,182.562c-6.185,2.478-12.454,4.775-18.826,6.746c-3.09,0.955-6.199,1.843-9.331,2.648
		l6.731,26.148c0.117,0.455,17.518-5.676,19.137-6.314c6.174-2.433,12.215-5.177,18.294-7.833
		c5.625-2.459,11.546-4.875,17.371-6.659c0,0-7.061-26.115-7.062-26.124c0.144,0.548-12.655,5.629-13.756,6.109
		C250.103,179.096,245.919,180.871,241.696,182.562z"/>
	<path fill="#FFFFFF" d="M161.712,196.693c-5.209-0.274-12.153-0.971-19.046-2.097c-6.896-1.097-13.73-2.614-18.803-3.938
		c-5.078-1.309-8.407-2.365-8.407-2.364l-7.878,25.825c0,0,3.779,1.197,9.521,2.679c5.738,1.497,13.462,3.213,21.288,4.458
		c7.82,1.275,15.736,2.07,21.705,2.389c2.979,0.215,5.476,0.258,7.221,0.309c1.745,0.049,2.742,0.076,2.742,0.076l0.341-26.997
		c0,0-0.868-0.025-2.388-0.069C166.489,196.917,164.317,196.887,161.712,196.693z"/>
	<polygon fill="#FFFFFF" points="64.299,72.145 47.278,72.145 47.278,145.839 100.004,145.839 100.004,130.893 64.299,130.893 	"/>
	<polygon fill="#FFFFFF" points="158.194,130.893 123.422,130.893 123.422,115.22 152.485,115.22 152.485,101.415 123.422,101.415 
		123.422,87.091 157.26,87.091 157.26,72.145 106.401,72.145 106.401,145.839 158.194,145.839 	"/>
	<polygon fill="#FFFFFF" points="225.356,72.145 163.391,72.145 163.391,87.091 185.915,87.091 185.915,145.839 202.936,145.839 
		202.936,87.091 225.356,87.091 	"/>
	<path fill="#FFFFFF" d="M280.131,109.251c-2.008-1.695-4.43-3.114-7.266-4.256c-2.838-1.142-6.02-2.196-9.549-3.166
		c-2.49-0.691-4.689-1.313-6.592-1.868c-1.902-0.553-3.494-1.158-4.773-1.816c-1.281-0.657-2.268-1.401-2.959-2.232
		c-0.691-0.83-1.037-1.868-1.037-3.114c0-2.006,0.778-3.529,2.336-4.567c1.557-1.038,3.787-1.557,6.693-1.557
		c2.215,0,4.428,0.311,6.643,0.934c2.215,0.623,4.256,1.349,6.125,2.18c1.867,0.83,3.426,1.626,4.67,2.387
		c1.246,0.762,2.006,1.281,2.283,1.557l7.371-14.116c-1.594-0.968-3.393-1.937-5.398-2.906c-2.008-0.968-4.135-1.833-6.383-2.595
		c-2.25-0.76-4.619-1.383-7.109-1.868c-2.492-0.483-5.053-0.727-7.682-0.727c-3.668,0-7.146,0.519-10.432,1.557
		c-3.287,1.038-6.176,2.579-8.666,4.619c-2.492,2.042-4.464,4.551-5.917,7.525c-1.453,2.976-2.18,6.401-2.18,10.275
		c0,2.769,0.397,5.19,1.194,7.266c0.794,2.076,2.023,3.91,3.684,5.501c1.661,1.593,3.737,2.994,6.229,4.204
		c2.49,1.212,5.432,2.335,8.822,3.374c2.559,0.762,4.912,1.453,7.059,2.076c2.143,0.623,4.012,1.298,5.604,2.024
		s2.838,1.541,3.738,2.439c0.898,0.9,1.348,2.042,1.348,3.425c0,3.668-3.01,5.501-9.029,5.501c-2.838,0-5.641-0.379-8.408-1.142
		c-2.768-0.761-5.259-1.625-7.473-2.595c-2.215-0.968-4.084-1.937-5.604-2.906c-1.522-0.968-2.457-1.625-2.803-1.972l-7.474,14.842
		c2.145,1.453,4.498,2.734,7.059,3.84c2.559,1.108,5.189,2.061,7.889,2.855c2.698,0.796,5.449,1.4,8.252,1.816
		c2.803,0.414,5.553,0.623,8.252,0.623c3.527,0,6.969-0.4,10.326-1.194c3.355-0.794,6.314-2.075,8.875-3.841
		c2.559-1.764,4.619-4.082,6.176-6.953s2.336-6.384,2.336-10.536c0-3.39-0.537-6.296-1.609-8.719
		C283.676,113.006,282.137,110.948,280.131,109.251z"/>
	<path fill="#FFFFFF" d="M325.143,143.244c4.117,2.076,8.494,3.113,13.131,3.113c3.459,0,6.658-0.623,9.602-1.867
		c2.939-1.246,5.725-3.183,8.355-5.812v7.161h14.115v-38.508H342.01v12.352h14.221v2.491c-2.424,3.045-5.02,5.311-7.785,6.798
		c-2.77,1.489-5.676,2.231-8.719,2.231c-2.631,0-5.053-0.553-7.266-1.661c-2.215-1.106-4.117-2.646-5.709-4.619
		s-2.838-4.308-3.736-7.006c-0.9-2.698-1.35-5.639-1.35-8.822c0-3.114,0.416-6.02,1.246-8.719s2.023-5.068,3.58-7.11
		c1.557-2.041,3.391-3.633,5.502-4.774c2.109-1.142,4.479-1.713,7.109-1.713c3.322,0,6.418,0.918,9.289,2.75
		c2.871,1.834,5.068,4.412,6.592,7.733l12.766-9.549c-2.422-4.982-6.09-8.908-11.002-11.781c-4.914-2.87-10.621-4.307-17.125-4.307
		c-4.982,0-9.619,0.97-13.908,2.906c-4.291,1.938-8.029,4.567-11.211,7.888c-3.184,3.321-5.674,7.231-7.473,11.729
		c-1.801,4.499-2.699,9.273-2.699,14.323c0,4.982,0.898,9.775,2.699,14.376c1.799,4.603,4.238,8.632,7.318,12.092
		C317.428,138.401,321.026,141.168,325.143,143.244z"/>
	<path fill="#FFFFFF" d="M444.008,95.499c-1.662-4.497-4.033-8.511-7.111-12.04c-3.08-3.529-6.764-6.366-11.053-8.511
		c-4.293-2.144-9.066-3.218-14.324-3.218c-5.121,0-9.844,1.022-14.168,3.062c-4.326,2.042-8.062,4.774-11.209,8.2
		c-3.15,3.425-5.605,7.387-7.371,11.885c-1.764,4.499-2.646,9.169-2.646,14.012c0,4.774,0.848,9.411,2.543,13.908
		c1.695,4.499,4.082,8.495,7.162,11.989c3.078,3.494,6.764,6.314,11.055,8.459c4.289,2.146,9.064,3.217,14.322,3.217
		c5.121,0,9.844-1.037,14.168-3.113s8.045-4.826,11.158-8.252c3.115-3.425,5.553-7.385,7.318-11.884
		c1.764-4.498,2.646-9.168,2.646-14.013C446.499,104.564,445.668,99.998,444.008,95.499z M428.075,117.036
		c-0.727,2.665-1.834,5.052-3.32,7.162c-1.49,2.111-3.34,3.824-5.555,5.138c-2.215,1.315-4.809,1.972-7.783,1.972
		c-2.906,0-5.484-0.623-7.732-1.868c-2.25-1.246-4.119-2.906-5.605-4.982c-1.488-2.076-2.631-4.445-3.426-7.11
		c-0.795-2.663-1.193-5.414-1.193-8.251c0-2.767,0.379-5.483,1.143-8.148c0.76-2.663,1.885-5.034,3.373-7.11
		c1.486-2.076,3.338-3.753,5.553-5.034c2.213-1.279,4.809-1.92,7.785-1.92c2.836,0,5.361,0.606,7.576,1.816
		c2.213,1.211,4.082,2.838,5.605,4.878c1.521,2.042,2.68,4.395,3.477,7.058c0.795,2.665,1.193,5.416,1.193,8.252
		C429.165,111.656,428.801,114.373,428.075,117.036z"/>
</g>
</svg>
