<?xml version="1.0" encoding="utf-8"?>
<!-- Generator: Adobe Illustrator 16.2.1, SVG Export Plug-In . SVG Version: 6.00 Build 0)  -->
<!DOCTYPE svg PUBLIC "-//W3C//DTD SVG 1.1//EN" "http://www.w3.org/Graphics/SVG/1.1/DTD/svg11.dtd">
<svg version="1.1" id="LetsGoLogo" xmlns="http://www.w3.org/2000/svg" xmlns:xlink="http://www.w3.org/1999/xlink" x="0px" y="0px"
	 width="415.479px" height="230.988px" viewBox="0 0 415.479 230.988" enable-background="new 0 0 415.479 230.988"
	 xml:space="preserve">
<circle fill="#FFFFFF" cx="28.571" cy="161.953" r="21.957"/>
<circle fill="#FFFFFF" cx="372.69" cy="200.277" r="21.957"/>
<path fill="#FFFFFF" d="M308.898,153.782c-7.481-2.299-15.161-3.943-20.956-4.88c-2.906-0.419-5.322-0.817-7.032-0.951
	c-1.704-0.175-2.678-0.274-2.678-0.274l-2.125,26.956c0,0,0.792,0.081,2.178,0.226c1.392,0.1,3.354,0.443,5.719,0.777
	c4.716,0.771,10.944,2.106,17.05,3.981c6.217,1.876,12.342,4.274,16.839,6.276c4.51,1.987,7.419,3.523,7.419,3.523l12.236-24.068
	c-0.001,0-3.418-1.803-8.719-4.141C323.538,158.853,316.334,156.026,308.898,153.782z"/>
<path fill="#FFFFFF" d="M202.696,163.466c-6.185,2.478-12.454,4.775-18.827,6.746c-3.089,0.955-6.199,1.843-9.331,2.648
	l6.731,26.148c0.117,0.455,17.518-5.676,19.137-6.314c6.173-2.433,12.214-5.177,18.293-7.833c5.625-2.459,11.546-4.875,17.371-6.659
	c0,0-7.061-26.115-7.062-26.124c0.144,0.548-12.655,5.629-13.756,6.109C211.103,159.999,206.919,161.774,202.696,163.466z"/>
<path fill="#FFFFFF" d="M122.712,177.597c-5.209-0.274-12.153-0.971-19.046-2.097c-6.896-1.097-13.73-2.614-18.803-3.938
	c-5.078-1.309-8.407-2.365-8.407-2.364l-7.878,25.825c0,0,3.779,1.197,9.521,2.679c5.738,1.497,13.462,3.213,21.288,4.458
	c7.82,1.275,15.736,2.07,21.705,2.389c2.979,0.215,5.476,0.258,7.221,0.309c1.745,0.049,2.742,0.076,2.742,0.076l0.341-26.997
	c0,0-0.868-0.025-2.388-0.069C127.489,177.82,125.317,177.79,122.712,177.597z"/>
<polygon fill="#FFFFFF" points="25.299,53.048 8.278,53.048 8.278,126.742 61.004,126.742 61.004,111.796 25.299,111.796 "/>
<polygon fill="#FFFFFF" points="119.194,111.796 84.422,111.796 84.422,96.123 113.485,96.123 113.485,82.318 84.422,82.318 
	84.422,67.995 118.26,67.995 118.26,53.048 67.401,53.048 67.401,126.742 119.194,126.742 "/>
<polygon fill="#FFFFFF" points="186.356,53.048 124.391,53.048 124.391,67.995 146.915,67.995 146.915,126.742 163.936,126.742 
	163.936,67.995 186.356,67.995 "/>
<path fill="#FFFFFF" d="M241.131,90.155c-2.008-1.695-4.43-3.114-7.266-4.256c-2.838-1.142-6.02-2.196-9.549-3.166
	c-2.49-0.691-4.689-1.313-6.592-1.868c-1.902-0.553-3.494-1.158-4.773-1.816c-1.281-0.657-2.268-1.401-2.959-2.232
	c-0.691-0.83-1.037-1.868-1.037-3.114c0-2.006,0.778-3.529,2.336-4.567c1.557-1.038,3.787-1.557,6.693-1.557
	c2.215,0,4.428,0.311,6.643,0.934c2.215,0.623,4.256,1.349,6.125,2.18c1.867,0.83,3.426,1.626,4.67,2.387
	c1.246,0.762,2.006,1.281,2.283,1.557l7.371-14.116c-1.594-0.968-3.393-1.937-5.398-2.906c-2.008-0.968-4.135-1.833-6.383-2.595
	c-2.25-0.76-4.619-1.383-7.109-1.868c-2.492-0.483-5.053-0.727-7.682-0.727c-3.668,0-7.146,0.519-10.432,1.557
	c-3.287,1.038-6.176,2.579-8.666,4.619c-2.492,2.042-4.464,4.551-5.917,7.525c-1.453,2.976-2.18,6.401-2.18,10.275
	c0,2.769,0.397,5.19,1.194,7.266c0.794,2.076,2.023,3.91,3.684,5.501c1.661,1.593,3.737,2.994,6.229,4.204
	c2.49,1.212,5.432,2.335,8.822,3.374c2.559,0.762,4.912,1.453,7.059,2.076c2.143,0.623,4.012,1.298,5.604,2.024
	s2.838,1.541,3.738,2.439c0.898,0.9,1.348,2.042,1.348,3.425c0,3.668-3.01,5.501-9.029,5.501c-2.838,0-5.641-0.379-8.408-1.142
	c-2.768-0.761-5.259-1.625-7.473-2.595c-2.215-0.968-4.084-1.937-5.604-2.906c-1.522-0.968-2.457-1.625-2.803-1.972l-7.474,14.842
	c2.145,1.453,4.498,2.734,7.059,3.84c2.559,1.108,5.189,2.061,7.889,2.855c2.698,0.796,5.449,1.4,8.252,1.816
	c2.803,0.414,5.553,0.623,8.252,0.623c3.527,0,6.969-0.4,10.326-1.194c3.355-0.794,6.314-2.075,8.875-3.841
	c2.559-1.764,4.619-4.082,6.176-6.953s2.336-6.384,2.336-10.536c0-3.39-0.537-6.296-1.609-8.719
	C244.676,93.909,243.137,91.851,241.131,90.155z"/>
<path fill="#FFFFFF" d="M286.143,124.147c4.117,2.076,8.494,3.113,13.131,3.113c3.459,0,6.658-0.623,9.602-1.867
	c2.939-1.246,5.725-3.183,8.355-5.812v7.161h14.115V88.234H303.01v12.352h14.221v2.491c-2.424,3.045-5.02,5.311-7.785,6.798
	c-2.77,1.489-5.676,2.231-8.719,2.231c-2.631,0-5.053-0.553-7.266-1.661c-2.215-1.106-4.117-2.646-5.709-4.619
	s-2.838-4.308-3.736-7.006c-0.9-2.698-1.35-5.639-1.35-8.822c0-3.114,0.416-6.02,1.246-8.719s2.023-5.068,3.58-7.11
	c1.557-2.041,3.391-3.633,5.502-4.774c2.109-1.142,4.479-1.713,7.109-1.713c3.322,0,6.418,0.918,9.289,2.75
	c2.871,1.834,5.068,4.412,6.592,7.733l12.766-9.549c-2.422-4.982-6.09-8.908-11.002-11.781c-4.914-2.87-10.621-4.307-17.125-4.307
	c-4.982,0-9.619,0.97-13.908,2.906c-4.291,1.938-8.029,4.567-11.211,7.888c-3.184,3.321-5.674,7.231-7.473,11.729
	c-1.801,4.499-2.699,9.273-2.699,14.323c0,4.982,0.898,9.775,2.699,14.376c1.799,4.603,4.238,8.632,7.318,12.092
	C278.428,119.305,282.026,122.071,286.143,124.147z"/>
<path fill="#FFFFFF" d="M405.008,76.402c-1.662-4.497-4.033-8.511-7.111-12.04c-3.08-3.529-6.764-6.366-11.053-8.511
	c-4.293-2.144-9.066-3.218-14.324-3.218c-5.121,0-9.844,1.022-14.168,3.062c-4.326,2.042-8.062,4.774-11.209,8.2
	c-3.15,3.425-5.605,7.387-7.371,11.885c-1.764,4.499-2.646,9.169-2.646,14.012c0,4.774,0.848,9.411,2.543,13.908
	c1.695,4.499,4.082,8.495,7.162,11.989c3.078,3.494,6.764,6.314,11.055,8.459c4.289,2.146,9.064,3.217,14.322,3.217
	c5.121,0,9.844-1.037,14.168-3.113s8.045-4.826,11.158-8.252c3.115-3.425,5.553-7.385,7.318-11.884
	c1.764-4.498,2.646-9.168,2.646-14.013C407.499,85.468,406.668,80.901,405.008,76.402z M389.075,97.939
	c-0.727,2.665-1.834,5.052-3.32,7.162c-1.49,2.111-3.34,3.824-5.555,5.138c-2.215,1.315-4.809,1.972-7.783,1.972
	c-2.906,0-5.484-0.623-7.732-1.868c-2.25-1.246-4.119-2.906-5.605-4.982c-1.488-2.076-2.631-4.445-3.426-7.11
	c-0.795-2.663-1.193-5.414-1.193-8.251c0-2.767,0.379-5.483,1.143-8.148c0.76-2.663,1.885-5.034,3.373-7.11
	c1.486-2.076,3.338-3.753,5.553-5.034c2.213-1.279,4.809-1.92,7.785-1.92c2.836,0,5.361,0.606,7.576,1.816
	c2.213,1.211,4.082,2.838,5.605,4.878c1.521,2.042,2.68,4.395,3.477,7.058c0.795,2.665,1.193,5.416,1.193,8.252
	C390.165,92.56,389.801,95.276,389.075,97.939z"/>
<path fill="#FF7C06" d="M222.708,26.641c3.35-6.039,1.168-13.648-4.871-16.997c-6.037-3.349-13.648-1.167-16.996,4.872
	c-3.348,6.038-6.307,37.156-6.307,37.156S219.36,32.679,222.708,26.641z M211.667,20.753c-1.346,2.426-11.32,10.056-11.32,10.056
	s1.189-12.501,2.533-14.927c1.346-2.426,4.402-3.302,6.83-1.957C212.135,15.27,213.01,18.328,211.667,20.753z"/>
</svg>
